# xmcd CD database file
#
# Track frame offsets:
#	150
#	17402
#	34322
#	51525
#
# Disc length: 909 seconds
#
# Revision: 10
# Processed by: cddbd v1.5.2PL0 Copyright (c) Steve Scherf et al.
# Submitted via: CDex 1.82
#
DISCID=2e038b04
DTITLE=Andreas Elsholz - Weil Ich Dich Liebe
DYEAR=0
DGENRE=Country
TTITLE0=Weil Ich Dich Liebe, radio edit
TTITLE1=Weil Ich Dich Liebe, soft drums
TTITLE2=Weil Ich Dich Liebe, instrumental
TTITLE3=Du Bist Die Insel
EXTD=YEAR: 0
EXTT0=
EXTT1=
EXTT2=
EXTT3=
PLAYORDER=
